<?xml version="1.0" standalone="no"?><!DOCTYPE svg PUBLIC "-//W3C//DTD SVG 1.1//EN" "http://www.w3.org/Graphics/SVG/1.1/DTD/svg11.dtd"><svg t="1545317223875" class="icon" style="" viewBox="0 0 1026 1024" version="1.1" xmlns="http://www.w3.org/2000/svg" p-id="1131" xmlns:xlink="http://www.w3.org/1999/xlink" width="200.390625" height="200"><defs><style type="text/css"></style></defs><path d="M383.99864 770.923563V725.334391h42.666516a21.333258 21.333258 0 0 0 21.333257-21.333258v-85.333031a21.333258 21.333258 0 0 0-21.333257-21.333258H191.99932a21.333258 21.333258 0 0 0-21.333258 21.333258v85.333031a21.333258 21.333258 0 0 0 21.333258 21.333258h21.333258v45.695838C81.386378 794.176814 12.330623 869.568547 2.389325 1001.066748A21.269258 21.269258 0 0 0 23.658583 1024h557.864691a21.269258 21.269258 0 0 0 15.637278-6.847976 21.247925 21.247925 0 0 0 5.63198-16.106609c-9.962631-131.647534-81.599711-207.081933-218.793892-230.121852zM47.423832 981.333484c14.698615-102.356971 74.154404-155.39145 190.057994-170.858061A21.333258 21.333258 0 0 0 255.999093 789.334164v-85.333031a21.333258 21.333258 0 0 0-21.333257-21.333257h-21.333258v-42.666516h191.99932v42.666516h-42.666516a21.333258 21.333258 0 0 0-21.333258 21.333257v85.333031a21.333258 21.333258 0 0 0 18.602601 21.162592c120.916905 15.551945 182.804686 68.586424 197.801966 170.836728H47.423832zM996.412471 6.254271L996.263138 6.168938l-0.149333-0.234666c-1.279995-1.215996-2.81599-1.877327-4.287984-2.730657-0.895997-0.511998-1.685327-1.301329-2.645324-1.685327-1.514661-0.597331-3.093322-0.682664-4.693317-0.91733C983.356517 0.430292 982.268521 0.003627 981.116525 0.02496c-1.429328 0.021333-2.794657 0.511998-4.202652 0.810664-1.279995 0.277332-2.581324 0.319999-3.797319 0.831997-1.365328 0.575998-2.495991 1.621328-3.733321 2.495991-1.04533 0.725331-2.218659 1.151996-3.135988 2.090659l-0.106667 0.170666-0.191999 0.128L853.330311 123.864521V21.336884a21.354591 21.354591 0 0 0-31.231889-18.901266c-45.013174 23.57325-115.967589 71.594413-180.095362 135.722186-124.863558 124.863558-180.415361 268.905714-137.279514 343.956115-0.021333 1.429328 0.383999 2.794657 0.639998 4.223985l-51.413152 53.567811a21.333258 21.333258 0 0 0 30.783891 29.525228l51.434485-53.56781c20.117262 10.965294 43.903845 16.703941 70.442417 16.703941 72.234411 0 162.815423-39.381194 242.068476-111.466272a21.333258 21.333258 0 0 0-14.357283-37.119869h-171.562059l40.981189-42.687848L703.997507 341.335751h194.324645a21.333258 21.333258 0 1 0 0-42.666515h-153.663456l41.557186-43.28518c1.066663 0.149333 2.005326 0.618664 3.114656 0.618664h171.071394a21.333258 21.333258 0 0 0 18.495934-10.709295c55.914469-97.535655 62.954444-193.599314 17.514605-239.039154zM672.168286 168.344364A805.799813 805.799813 0 0 1 810.663796 58.264754v110.036943L537.726096 452.631357c-20.62926-55.231804 23.466584-173.311386 134.44219-284.286993z m101.69564 258.303085c-80.042383 56.533133-159.359436 73.53574-206.548602 56.767799l54.48514-56.767799h152.063462zM947.81531 213.336204h-121.236904l151.039465-157.332776c13.141287 35.81854 2.346658 96.767657-29.802561 157.332776z" fill="#231F20" p-id="1132"></path></svg>